/* XPM */
static char *_834a7e3afe7428adc24799fa43f3b09[] = {
/* columns rows colors chars-per-pixel */
"32 32 110 2 ",
"   c #F4A41E",
".  c #FCBB13",
"X  c #FCBC1C",
"o  c #F6AC24",
"O  c #F5AB2B",
"+  c #F9B323",
"@  c #FBBB23",
"#  c #F7B02D",
"$  c #F8B128",
"%  c #FBBC2C",
"&  c #F5AE35",
"*  c #F5AF39",
"=  c #F7B435",
"-  c #F8B634",
";  c #FABB33",
":  c #F6B23B",
">  c #F8B93B",
",  c #FDC21E",
"<  c #FDC425",
"1  c #FDC927",
"2  c #FDC32C",
"3  c #FEC92D",
"4  c #FCC131",
"5  c #FECA32",
"6  c #FDCD3A",
"7  c #FED133",
"8  c #FED33B",
"9  c #F6B242",
"0  c #F7B94E",
"q  c #F7B850",
"w  c #F9BF50",
"e  c #F7BE5D",
"r  c #FBC242",
"t  c #FDCC43",
"y  c #F9C04C",
"u  c #FECC4A",
"i  c #FED543",
"p  c #FFD943",
"a  c #FED74C",
"s  c #FFDB4D",
"d  c #F9C45C",
"f  c #FED554",
"g  c #FFDE51",
"h  c #FED35D",
"j  c #FEDB5C",
"k  c #FEE24E",
"l  c #FFE355",
"z  c #FFE45B",
"x  c #F9C363",
"c  c #FBCD67",
"v  c #F8C36B",
"b  c #FDD161",
"n  c #FEDB65",
"m  c #FBD06F",
"M  c #FED86E",
"N  c #FACB74",
"B  c #F9CA7C",
"V  c #FDD574",
"C  c #FDDB7A",
"Z  c #FFE664",
"A  c #FEE46B",
"S  c #FFE86B",
"D  c #FFE373",
"F  c #FFE972",
"G  c #FFE37C",
"H  c #FFEA7B",
"J  c #F9CC81",
"K  c #FBD484",
"L  c #FAD38E",
"P  c #FDDC8A",
"I  c #FAD496",
"U  c #FAD79A",
"Y  c #FDDF99",
"T  c #FEE383",
"R  c #FFEC85",
"E  c #FEEC8B",
"W  c #FEE394",
"Q  c #FFEC93",
"!  c #FEE59A",
"~  c #FEE89C",
"^  c #FFF09F",
"/  c #FBDBA4",
"(  c #FBDDAA",
")  c #FCE0A5",
"_  c #FEECA4",
"`  c #FCE0AA",
"'  c #FEECAD",
"]  c #FFF0A3",
"[  c #FFF2AF",
"{  c #FCE3B4",
"}  c #FEEBB3",
"|  c #FBE3BA",
" . c #FEEDBC",
".. c #FFF3B5",
"X. c #FEF3BC",
"o. c #FCE6C4",
"O. c #FDECC4",
"+. c #FCEBCB",
"@. c #FFF6C5",
"#. c #FFF5CB",
"$. c #FFF8CD",
"%. c #FDEED5",
"&. c #FDEFDC",
"*. c #FDF2DB",
"=. c #FDF3E3",
"-. c #FFFBE2",
";. c #FEF6EA",
":. c #FEF8EE",
">. c #FEFEFC",
",. c None",
/* pixels */
",.,.,.,.,.,.,.,.,.,.,.,.,.,.,.,.,.,.,.,.,.,.,.,.,.,.,.,.,.,.,.,.",
",.,.,.,.,.,.,.,.,.,.,.,.,.,.,.,.,.,.,.,.,.,.,.,.,.,.,.,.,.,.,.,.",
",.,.,.,.,.,.,.,.,.,.,.,.,.,.,.,.,.,.,.,.,.,.,.,.,.,.,.,.,.,.,.,.",
",.,.,.,.,.,.,.,.,.,.,.,.,.,.,.,.,.,.,.,.,.,.,.,.,.,.,.,.,.,.,.,.",
",.,.,.,.,.,.,.,.,.,.,.,.,.,.,.,.,.,.,.,.,.,.,.,.,.,.,.,.,.,.,.,.",
",.,.,.,.,.,.,.,.,.,.,.,.,.,.,.,.,.,.,.,.,.,.,.,.,.,.,.,.,.,.,.,.",
",.,.,.,.,.,.,.,.,.,.,.,.,.,.,.H F ,.,.,.,.,.,.,.,.,.,.,.,.,.,.,.",
",.,.,.,.,.,.,.,.,.,.,.,.,.,.] z z Q ,.,.,.,.,.,.,.,.,.,.,.,.,.,.",
",.,.,.,.,.,.,.,.,.F H X.,.$.S z z z [ ,.$.E j A ,.,.,.,.,.,.,.,.",
",.,.,.,.,.,.,.,.,.z l s } E k z z k A @.z s 8 n ,.,.,.,.,.,.,.,.",
",.,.,.,.R Z H ^ $.D 8 i _ k g g s s 8 ~ D 7 i W $.E S H ,.,.,.,.",
",.,.,.,.] z l l S ] ~ W T 8 a i i i 8 j _ C ' H z z l R ,.,.,.,.",
",.,.,.,...z z Z z k D *.s 8 8 6 6 8 6 3 O.~ 8 p g z z Q ,.,.,.,.",
",.,.,.,.@.S z l l s i ' 6 5 5 3 5 2 5 , ! f 5 a s g l ] ,.,.,.,.",
",.,.,.,.,.S s s i 8 f } < 2 2 2 2 2 2 X Y M 3 6 8 i s ..,.,.,.,.",
",.,.,.,.,.T 8 i 6 3 u } @ 2 2 4 % 2 ; X Y M , 5 6 8 j -.,.,.,.,.",
",.,.,.,.-...3 5 2 < r  .% ; ; ; ; ; ; + / V X 2 5 1 T @...,.,.,.",
",.,.] R z ..b X 4 % r O.; - ; ; - - ; $ { c @ 2 2 2 X.z Z H R ,.",
",.R z l l A #.% ; ; = +.y = : = = : : : +.w % ; X ! W 8 z z E ,.",
",.,.R z z 7 T { $ : O ( L o : : : : O v +.# > + m  .2 7 s ] ,.,.",
",.,.,.] s 3 X { ( O O e &.9 & : : * O &.B O O d =.r . t ' ,.,.,.",
",.,.,.,. .h @ + o.{ *   I &.* & * O o.| O O v &.q $ V #.,.,.,.,.",
",.,.,.,.,.,.{ N 9 ( +.B & / &.q 9 +.{ O q ( =.B J +.,.,.,.,.,.,.",
",.,.,.,.,.,.,.,.=.| &.>.>.=.>.:.;.>.o.=.>.>.&.;.,.,.,.,.,.,.,.,.",
",.,.,.,.,.,.,.,.,.>.C h C P P +.>.` K B x 0 U ,.,.,.,.,.,.,.,.,.",
",.,.,.,.,.,.,.,.,.,._ z D C ,.,.,.,.W b 6 t ,.,.,.,.,.,.,.,.,.,.",
",.,.,.,.,.,.,.,.,.,.,.,.,.,.,.,.,.,.,.,.,.,.,.,.,.,.,.,.,.,.,.,.",
",.,.,.,.,.,.,.,.,.,.,.,.,.,.,.,.,.,.,.,.,.,.,.,.,.,.,.,.,.,.,.,.",
",.,.,.,.,.,.,.,.,.,.,.,.,.,.,.,.,.,.,.,.,.,.,.,.,.,.,.,.,.,.,.,.",
",.,.,.,.,.,.,.,.,.,.,.,.,.,.,.,.,.,.,.,.,.,.,.,.,.,.,.,.,.,.,.,.",
",.,.,.,.,.,.,.,.,.,.,.,.,.,.,.,.,.,.,.,.,.,.,.,.,.,.,.,.,.,.,.,.",
",.,.,.,.,.,.,.,.,.,.,.,.,.,.,.,.,.,.,.,.,.,.,.,.,.,.,.,.,.,.,.,."
};
