/* XPM */
static char *f8bef2907ba54e5a9d2b1900cd4413ab[] = {
/* columns rows colors chars-per-pixel */
"16 16 101 2 ",
"   c #F9B21B",
".  c #FCBD1D",
"X  c #F5AB2F",
"o  c #F6AF2F",
"O  c #F7B027",
"+  c #FAB92F",
"@  c #F6AF33",
"#  c #F5AD36",
"$  c #F9B932",
"%  c #F9BA3B",
"&  c #FCC026",
"*  c #FDC128",
"=  c #FCC12B",
"-  c #FEC92E",
";  c #FCC132",
":  c #FDC733",
">  c #FECB32",
",  c #FECC31",
"<  c #FECE34",
"1  c #FDC639",
"2  c #FECB38",
"3  c #FED23B",
"4  c #F6B345",
"5  c #F6B444",
"6  c #F7BC57",
"7  c #FAC041",
"8  c #FDCC44",
"9  c #FED643",
"0  c #FED945",
"q  c #FED24A",
"w  c #FED748",
"e  c #FED848",
"r  c #FFDD4A",
"t  c #FBC958",
"y  c #FDCF59",
"u  c #FED650",
"i  c #FEDA56",
"p  c #FED85C",
"a  c #FEE051",
"s  c #FFE054",
"d  c #FFE457",
"f  c #FFE358",
"g  c #F8C361",
"h  c #FBCF6B",
"j  c #FEDD62",
"k  c #F9C771",
"l  c #FACE74",
"z  c #F9CB78",
"x  c #FDD670",
"c  c #FEDA70",
"v  c #FDD779",
"b  c #FCD57A",
"n  c #FCD47F",
"m  c #FEE363",
"M  c #FFE560",
"N  c #FEE264",
"B  c #FEE16D",
"V  c #FEE36D",
"C  c #FEE86B",
"Z  c #FEE86F",
"A  c #FFE771",
"S  c #FEE074",
"D  c #FEE075",
"F  c #FEE176",
"G  c #FEE971",
"H  c #FEE872",
"J  c #FFE872",
"K  c #FEEA77",
"L  c #FEE47F",
"P  c #FEEA7A",
"I  c #FFEA7A",
"U  c #FFEB7E",
"Y  c #FFEC7C",
"T  c #F8CB83",
"R  c #FAD184",
"E  c #FDDB88",
"W  c #FCD98B",
"Q  c #F9D291",
"!  c #F9D292",
"~  c #FAD591",
"^  c #FAD99F",
"/  c #FFEA87",
"(  c #FEE289",
")  c #FEE28D",
"_  c #FEE892",
"`  c #FEEA93",
"'  c #FEE894",
"]  c #FEEA95",
"[  c #FBDBA8",
"{  c #FBDDAA",
"}  c #FADCAC",
"|  c #FEEFA3",
" . c #FFEFA4",
".. c #FEEFAA",
"X. c #FBE1B4",
"o. c #FBE2B7",
"O. c #FBE2B8",
"+. c #FCE4BB",
"@. c #FCE9C9",
"#. c #FDF4E2",
"$. c None",
/* pixels */
"$.$.$.$.$.$.$.$.$.$.$.$.$.$.$.$.",
"$.$.$.$.$.$.$.$.$.$.$.$.$.$.$.$.",
"$.$.$.$.$.$.$.$.$.$.$.$.$.$.$.$.",
"$.$.$.$.$.$.$.U P $.$.$.$.$.$.$.",
"$.$.$.$.A N ..f f  .A i $.$.$.$.",
"$.$.G G / D B 0 9 j D c P Z $.$.",
"$.$.U d a ` q > > 2 ) w r G $.$.",
"$.$.` e < c 1 * = ; x - 3 L $.$.",
"$.$. .8 . v 5 + $ % n . 1 ] Y $.",
"$.Z s E O z t o @ 6 R   v u m $.",
"$.$.p t T 4 Q # @ Q 5 k l y $.$.",
"$.$.$.~ { +.o.+.o.[ } @.^ $.$.$.",
"$.$.$.$.$.] ( $.#.W h $.$.$.$.$.",
"$.$.$.$.$.$.$.$.$.$.$.$.$.$.$.$.",
"$.$.$.$.$.$.$.$.$.$.$.$.$.$.$.$.",
"$.$.$.$.$.$.$.$.$.$.$.$.$.$.$.$."
};
