/* XPM */
static char *_d9cbd1c81b04ebce2d9b671855daee2[] = {
/* columns rows colors chars-per-pixel */
"64 64 128 2 ",
"   c #F8AE19",
".  c #F8B21E",
"X  c #FCBD1D",
"o  c #F5A726",
"O  c #F6AB27",
"+  c #F5AB2C",
"@  c #F7B025",
"#  c #FAB624",
"$  c #FBBB22",
"%  c #F7B02B",
"&  c #F9B52B",
"*  c #FBBD2E",
"=  c #F5AD33",
"-  c #F5AF3A",
";  c #F7B336",
":  c #F8B635",
">  c #FABB32",
",  c #F6B13B",
"<  c #F8B639",
"1  c #F9BA3B",
"2  c #FDC116",
"3  c #FDC11C",
"4  c #FDC81E",
"5  c #FDC424",
"6  c #FDC825",
"7  c #FDC32C",
"8  c #FDCA2D",
"9  c #FCC331",
"0  c #FECB34",
"q  c #FBC13C",
"w  c #FECE3A",
"e  c #FED235",
"r  c #FDD23D",
"t  c #FED83B",
"y  c #F6B342",
"u  c #F9BE44",
"i  c #F6B64A",
"p  c #F6B84F",
"a  c #F7BA54",
"s  c #F7BD5C",
"d  c #FDC742",
"f  c #FECB43",
"g  c #FAC049",
"h  c #FED543",
"j  c #FEDA45",
"k  c #FED64A",
"l  c #FEDA4C",
"z  c #FAC353",
"x  c #F9C45B",
"c  c #FED657",
"v  c #FEDE52",
"b  c #FED55A",
"n  c #FEDA5D",
"m  c #FEE246",
"M  c #FFE24E",
"N  c #FFE354",
"B  c #FFE55C",
"V  c #F7C165",
"C  c #F9C363",
"Z  c #F8C56F",
"A  c #FBCD6B",
"S  c #FDD163",
"D  c #FEDB61",
"F  c #FDD36D",
"G  c #FEDA6E",
"H  c #F8C671",
"J  c #F9CA77",
"K  c #F8C979",
"L  c #FCD377",
"P  c #FEDC72",
"I  c #FDDB7C",
"U  c #FFE662",
"Y  c #FFE56A",
"T  c #FFE86C",
"R  c #FFE376",
"E  c #FFE974",
"W  c #FFE679",
"Q  c #FFEA7C",
"!  c #F9CD84",
"~  c #F9CF8A",
"^  c #FCD786",
"/  c #FEDD84",
"(  c #FAD28F",
")  c #FEDD89",
"_  c #FAD493",
"`  c #FCDC93",
"'  c #FAD79E",
"]  c #FBDA99",
"[  c #FEE485",
"{  c #FFEB83",
"}  c #FEE38B",
"|  c #FFEC8B",
" . c #FEE294",
".. c #FFED93",
"X. c #FEE29D",
"o. c #FFED9B",
"O. c #FFF09F",
"+. c #FBDCA4",
"@. c #FBDDAB",
"#. c #FBDFB1",
"$. c #FEE4A2",
"%. c #FEEBA5",
"&. c #FEEBAC",
"*. c #FFF0A1",
"=. c #FFF1AC",
"-. c #FCE4B5",
";. c #FEEBB3",
":. c #FCE4BC",
">. c #FFF2B3",
",. c #FFF4BD",
"<. c #FCE5C1",
"1. c #FDEAC5",
"2. c #FDEBCA",
"3. c #FFF5C5",
"4. c #FFF4CA",
"5. c #FDEED3",
"6. c #FDEFD9",
"7. c #FEF5D4",
"8. c #FFF8D3",
"9. c #FEF4DA",
"0. c #FFF9DB",
"q. c #FDF5E4",
"w. c #FFFAE4",
"e. c #FEF6EA",
"r. c #FEFAEC",
"t. c #FEFBF3",
"y. c #FFFFFE",
"u. c None",
/* pixels */
"u.u.u.u.u.u.u.u.u.u.u.u.u.u.u.u.u.u.u.u.u.u.u.u.u.u.u.u.u.u.u.u.u.u.u.u.u.u.u.u.u.u.u.u.u.u.u.u.u.u.u.u.u.u.u.u.u.u.u.u.u.u.u.u.",
"u.u.u.u.u.u.u.u.u.u.u.u.u.u.u.u.u.u.u.u.u.u.u.u.u.u.u.u.u.u.u.u.u.u.u.u.u.u.u.u.u.u.u.u.u.u.u.u.u.u.u.u.u.u.u.u.u.u.u.u.u.u.u.u.",
"u.u.u.u.u.u.u.u.u.u.u.u.u.u.u.u.u.u.u.u.u.u.u.u.u.u.u.u.u.u.u.u.u.u.u.u.u.u.u.u.u.u.u.u.u.u.u.u.u.u.u.u.u.u.u.u.u.u.u.u.u.u.u.u.",
"u.u.u.u.u.u.u.u.u.u.u.u.u.u.u.u.u.u.u.u.u.u.u.u.u.u.u.u.u.u.u.u.u.u.u.u.u.u.u.u.u.u.u.u.u.u.u.u.u.u.u.u.u.u.u.u.u.u.u.u.u.u.u.u.",
"u.u.u.u.u.u.u.u.u.u.u.u.u.u.u.u.u.u.u.u.u.u.u.u.u.u.u.u.u.u.u.u.u.u.u.u.u.u.u.u.u.u.u.u.u.u.u.u.u.u.u.u.u.u.u.u.u.u.u.u.u.u.u.u.",
"u.u.u.u.u.u.u.u.u.u.u.u.u.u.u.u.u.u.u.u.u.u.u.u.u.u.u.u.u.u.u.u.u.u.u.u.u.u.u.u.u.u.u.u.u.u.u.u.u.u.u.u.u.u.u.u.u.u.u.u.u.u.u.u.",
"u.u.u.u.u.u.u.u.u.u.u.u.u.u.u.u.u.u.u.u.u.u.u.u.u.u.u.u.u.u.u.u.u.u.u.u.u.u.u.u.u.u.u.u.u.u.u.u.u.u.u.u.u.u.u.u.u.u.u.u.u.u.u.u.",
"u.u.u.u.u.u.u.u.u.u.u.u.u.u.u.u.u.u.u.u.u.u.u.u.u.u.u.u.u.u.u.u.u.u.u.u.u.u.u.u.u.u.u.u.u.u.u.u.u.u.u.u.u.u.u.u.u.u.u.u.u.u.u.u.",
"u.u.u.u.u.u.u.u.u.u.u.u.u.u.u.u.u.u.u.u.u.u.u.u.u.u.u.u.u.u.u.u.u.u.u.u.u.u.u.u.u.u.u.u.u.u.u.u.u.u.u.u.u.u.u.u.u.u.u.u.u.u.u.u.",
"u.u.u.u.u.u.u.u.u.u.u.u.u.u.u.u.u.u.u.u.u.u.u.u.u.u.u.u.u.u.u.u.u.u.u.u.u.u.u.u.u.u.u.u.u.u.u.u.u.u.u.u.u.u.u.u.u.u.u.u.u.u.u.u.",
"u.u.u.u.u.u.u.u.u.u.u.u.u.u.u.u.u.u.u.u.u.u.u.u.u.u.u.u.u.u.u.u.u.u.u.u.u.u.u.u.u.u.u.u.u.u.u.u.u.u.u.u.u.u.u.u.u.u.u.u.u.u.u.u.",
"u.u.u.u.u.u.u.u.u.u.u.u.u.u.u.u.u.u.u.u.u.u.u.u.u.u.u.u.u.u.u.u...u.u.u.u.u.u.u.u.u.u.u.u.u.u.u.u.u.u.u.u.u.u.u.u.u.u.u.u.u.u.u.",
"u.u.u.u.u.u.u.u.u.u.u.u.u.u.u.u.u.u.u.u.u.u.u.u.u.u.u.u.u.u.u.Q U ,.u.u.u.u.u.u.u.u.u.u.u.u.u.u.u.u.u.u.u.u.u.u.u.u.u.u.u.u.u.u.",
"u.u.u.u.u.u.u.u.u.u.u.u.u.u.u.u.u.u.u.u.u.u.u.u.u.u.u.u.u.u...N B E 8.u.u.u.u.u.u.u.u.u.u.u.u.u.u.u.u.u.u.u.u.u.u.u.u.u.u.u.u.u.",
"u.u.u.u.u.u.u.u.u.u.u.u.u.u.u.u.u.u.u.u.u.u.u.u.u.u.u.u.u.>.N B B N { t.u.u.u.u.u.u.u.u.u.u.u.u.u.u.u.u.u.u.u.u.u.u.u.u.u.u.u.u.",
"u.u.u.u.u.u.u.u.u.u.u.u.u.u.u.u.u.u...u.u.u.u.u.u.u.u.u.8.B B B B U M o.u.u.u.u.u.u.u.u.u.u.| u.u.u.u.u.u.u.u.u.u.u.u.u.u.u.u.u.",
"u.u.u.u.u.u.u.u.u.u.u.u.u.u.u.u.u.u.T T o.8.u.u.u.u.u.t.E N U B U B B N ,.u.u.u.u.u.t.,.| D v u.u.u.u.u.u.u.u.u.u.u.u.u.u.u.u.u.",
"u.u.u.u.u.u.u.u.u.u.u.u.u.u.u.u.u.,.T N N U o.8.u.u.y.*.M U B U B B B B U w.u.u.r.>.E v j j k %.u.u.u.u.u.u.u.u.u.u.u.u.u.u.u.u.",
"u.u.u.u.u.u.u.u.u.u.u.u.u.u.u.u.u.3.B B B N m N | t.8.N B B B B B B B B M Q y.&.U l l M k k h &.u.u.u.u.u.u.u.u.u.u.u.u.u.u.u.u.",
"u.u.u.u.u.u.u.u.u.{ ..3.u.u.u.u.u.,.N N v v l j h 0.Q v B N N v v v v N v j 3.O.j N l k j h t ;.u.u.u.u.u.u...u.u.u.u.u.u.u.u.u.",
"u.u.u.u.u.u.u.u.u.Q B U { =.0.t.u.>.t l l k k e %.4.j N N v v v v l l N v j Y r.B k k j h r 6 ;.u.u.w.>.| T U ..u.u.u.u.u.u.u.u.",
"u.u.u.u.u.u.u.u.u.{ B B N N U | 3.r.%.v e h r k r.W j v l l l l k l k k k l r 3.&.t l r 8 h } e.8...T N N B U =.u.u.u.u.u.u.u.u.",
"u.u.u.u.u.u.u.u.u.| N U B U B N N E 3.r.%.h 4  .0.h k k k k h h j h h h h h r P t.l 0 h %.r.3.W N N B U B U B 3.u.u.u.u.u.u.u.u.",
"u.u.u.u.u.u.u.u.u...N U B B B U U N M W w.t.G 0.o.e j j h h h h h h h t r r r r r.[ P t.8.T j l N B B B B B U 3.u.u.u.u.u.u.u.u.",
"u.u.u.u.u.u.u.u.u.*.N B U B B B B U U N M *.y.y.n r h r h r w r r w r r w r w 8 ;.y.t.| e h l v v v B B B B U 7.u.u.u.u.u.u.u.u.",
"u.u.u.u.u.u.u.u.u.=.N U B B B U B B B N v t %.r.r w w w w w w w w 0 0 0 0 0 0 6 / y.c 8 h h k l l v v B B B U w.u.u.u.u.u.u.u.u.",
"u.u.u.u.u.u.u.u.u.,.N B B B B B B N N l v t 3.4.7 w 0 w 0 0 0 0 0 0 0 0 0 9 0 5 b y.k 0 r h h h l l v N B N E t.u.u.u.u.u.u.u.u.",
"u.u.u.u.u.u.u.u.u.8.B B B B N N v l l k h r q.&.5 w 8 8 8 0 8 7 7 8 7 7 6 7 6 5 d y.P 8 r w r h j k l l N l Q y.u.u.u.u.u.u.u.u.",
"u.u.u.u.u.u.u.u.u.r.U N N v v l k j h h r r t. .3 8 7 6 7 6 7 7 7 7 7 7 7 7 7 * 0 y./ 5 0 w w r h h h k v j ..y.u.u.u.u.u.u.u.u.",
"u.u.u.u.u.u.u.u.u.y.W l v l k h h h h w 0 f y./ 3 9 7 7 7 7 7 7 7 7 7 7 7 7 * 7 9 t. .3 0 0 0 w r h h j l t >.u.u.u.u.u.u.u.u.u.",
"u.u.u.u.u.u.u.u.u.y.O.t l h h h r r 0 0 8 f y.^ X 9 7 7 7 7 * 7 * * * 7 * * * * 9 t.X.X 9 8 0 0 w r h h h h 0.u.u.u.u.u.u.u.u.u.",
"u.u.u.u.u.u.u.u.u.u.7.r h h w w 0 0 0 8 5 w y.) X 9 7 * * * * 9 * * * 7 * * * * 1 t.X.X 9 6 7 8 0 0 w r r U y.u.u.u.u.u.u.u.u.u.",
"u.u.u.u.u.u.u.u.u.u.y.n 0 w w 0 0 7 6 7 5 d y.` X 1 * * * * * * * * * > > > > & 1 y.X.X 7 7 7 6 9 0 0 r 0 X.y.t.u.u.u.u.u.u.u.u.",
"u.u.u.u.u.u.u.u.e.=.w.;.6 0 7 7 6 7 7 9 * q y.$.X > * * * * 1 * > > > > > > > > g y.` $ * 7 7 7 7 8 0 0 w r.O.T =.8.u.u.u.u.u.u.",
"u.u.u.u.u.u.3...U m | t.k 5 7 7 * 9 * * * > t.-.# : > > : : : : : > : : : : : & x y.^ $ > 9 7 7 6 7 9 5 [ t.B N N B { =.u.u.u.u.",
"u.u.u.u.>.{ B N B U B r.;.X 7 7 * * * * > > q.5.& : > 1 : : : : : : : : : : < @ J y.A # > 9 * * * 7 5 8 r.&.j B B B N B T { u.u.",
"u.u...E B N B U B U M { y.F $ 9 * * > : < & 1.t.1 : : : : < : ; ; < : < < : < + +.y.z & > > * * 9 9 X $.t.l k v B B B B B o.u.u.",
"u.u.O.T N U B B B B v t 1.t.q & : : : : < @ ] y.C & - : < - ; ; ; ; - - - - < = 6.r.: : : > > * * $ S y.} 0 k l N B B B >.u.u.u.",
"u.u.u.3.E N U B B v l h k t.2.& : < : < , = V y.+.@ < - - , - , - - , , - - = s y.-.+ < : > > > * q r.4.6 w w h l N N ,.u.u.u.u.",
"u.u.u.u.0.{ N U B v h r 5 G y.+.& , ; ; , - - q.t.y - , , - - - , , - - - y + @.y.Z % < : : : > > 5.t.d 5 0 w h t j ,.u.u.u.u.u.",
"u.u.u.u.u.t.o.M v k h 0 7 3 X.y.( + y - - y + _ y.' o , - , - , - - , - , = s y.6.- - - ; < : & -.y.F $ 7 7 0 8 k 4.u.u.u.u.u.u.",
"u.u.u.u.u.u.y.>.j r w 0 7 * > 1.y.~ o y - - - , q.y.V + y - - , , , - - - - 6.y.Z = , - - < % @.y.] & * * 7 3 b q.u.u.u.u.u.u.u.",
"u.u.u.u.u.u.u.u.0.D 3 7 9 > > 1 5.y.( + - - - = Z y.e.a = - - - - - y - - :.y.#.= , - , = = @.y.-.% < > $ *  .t.u.u.u.u.u.u.u.u.",
"u.u.u.u.u.u.u.u.u.t.$.0 X & < ; y 6.y.@.- = - y = _ y.e.a = , - - , = - :.y.2.- - , - = y <.y.<.- ; & @ A 9.y.u.u.u.u.u.u.u.u.u.",
"u.u.u.u.u.u.u.u.u.u.y.r.` u O = = y <.y.q.K - + - + ' y.e.H + - y + p 5.y.5.y - - + = K e.y.@.o + y K 5.y.u.u.u.u.u.u.u.u.u.u.u.",
"u.u.u.u.u.u.u.u.u.u.u.u.y.t.:.K i = o ~ t.y.6._ s - o ~ y.y.+.- + K e.y.:.= o = i ! 5.y.e.! y K #.e.y.y.u.u.u.u.u.u.u.u.u.u.u.u.",
"u.u.u.u.u.u.u.u.u.u.u.u.u.u.y.y.t.5.@.H ! 2.y.y.y.q.1.+.5.y.y.2.#.y.y.2.Z ! +.2.e.y.y.y.6.2.y.y.y.u.u.u.u.u.u.u.u.u.u.u.u.u.u.u.",
"u.u.u.u.u.u.u.u.u.u.u.u.u.u.u.u.u.y.y.y.y.y.y.y.y.y.y.y.y.y.y.y.y.y.y.y.y.y.y.y.y.y.y.t.e.y.u.u.u.u.u.u.u.u.u.u.u.u.u.u.u.u.u.u.",
"u.u.u.u.u.u.u.u.u.u.u.u.u.u.u.u.u.u.u.r.F ^ $.-.1.5.5.1.-.` +.t.y.r.+.@.:.<.:.#.' ~ H y H u.u.u.u.u.u.u.u.u.u.u.u.u.u.u.u.u.u.u.",
"u.u.u.u.u.u.u.u.u.u.u.u.u.u.u.u.u.u.u.y.P 2 5 5 6 5 3 X d L u.u.u.t.-.z .   @ % & + = + _ u.u.u.u.u.u.u.u.u.u.u.u.u.u.u.u.u.u.u.",
"u.u.u.u.u.u.u.u.u.u.u.u.u.u.u.u.u.u.u.u.8.l N j h v R %.u.u.u.u.u.u.u.y.2.I d 6 5 * * 9 -.u.u.u.u.u.u.u.u.u.u.u.u.u.u.u.u.u.u.u.",
"u.u.u.u.u.u.u.u.u.u.u.u.u.u.u.u.u.u.u.u.y.{ U ..>.w.u.u.u.u.u.u.u.u.u.u.u.u.e.&.P c r b u.u.u.u.u.u.u.u.u.u.u.u.u.u.u.u.u.u.u.u.",
"u.u.u.u.u.u.u.u.u.u.u.u.u.u.u.u.u.u.u.u.u.r.r.y.u.u.u.u.u.u.u.u.u.u.u.u.u.u.u.u.u.u.o.u.u.u.u.u.u.u.u.u.u.u.u.u.u.u.u.u.u.u.u.u.",
"u.u.u.u.u.u.u.u.u.u.u.u.u.u.u.u.u.u.u.u.u.u.u.u.u.u.u.u.u.u.u.u.u.u.u.u.u.u.u.u.u.u.u.u.u.u.u.u.u.u.u.u.u.u.u.u.u.u.u.u.u.u.u.u.",
"u.u.u.u.u.u.u.u.u.u.u.u.u.u.u.u.u.u.u.u.u.u.u.u.u.u.u.u.u.u.u.u.u.u.u.u.u.u.u.u.u.u.u.u.u.u.u.u.u.u.u.u.u.u.u.u.u.u.u.u.u.u.u.u.",
"u.u.u.u.u.u.u.u.u.u.u.u.u.u.u.u.u.u.u.u.u.u.u.u.u.u.u.u.u.u.u.u.u.u.u.u.u.u.u.u.u.u.u.u.u.u.u.u.u.u.u.u.u.u.u.u.u.u.u.u.u.u.u.u.",
"u.u.u.u.u.u.u.u.u.u.u.u.u.u.u.u.u.u.u.u.u.u.u.u.u.u.u.u.u.u.u.u.u.u.u.u.u.u.u.u.u.u.u.u.u.u.u.u.u.u.u.u.u.u.u.u.u.u.u.u.u.u.u.u.",
"u.u.u.u.u.u.u.u.u.u.u.u.u.u.u.u.u.u.u.u.u.u.u.u.u.u.u.u.u.u.u.u.u.u.u.u.u.u.u.u.u.u.u.u.u.u.u.u.u.u.u.u.u.u.u.u.u.u.u.u.u.u.u.u.",
"u.u.u.u.u.u.u.u.u.u.u.u.u.u.u.u.u.u.u.u.u.u.u.u.u.u.u.u.u.u.u.u.u.u.u.u.u.u.u.u.u.u.u.u.u.u.u.u.u.u.u.u.u.u.u.u.u.u.u.u.u.u.u.u.",
"u.u.u.u.u.u.u.u.u.u.u.u.u.u.u.u.u.u.u.u.u.u.u.u.u.u.u.u.u.u.u.u.u.u.u.u.u.u.u.u.u.u.u.u.u.u.u.u.u.u.u.u.u.u.u.u.u.u.u.u.u.u.u.u.",
"u.u.u.u.u.u.u.u.u.u.u.u.u.u.u.u.u.u.u.u.u.u.u.u.u.u.u.u.u.u.u.u.u.u.u.u.u.u.u.u.u.u.u.u.u.u.u.u.u.u.u.u.u.u.u.u.u.u.u.u.u.u.u.u.",
"u.u.u.u.u.u.u.u.u.u.u.u.u.u.u.u.u.u.u.u.u.u.u.u.u.u.u.u.u.u.u.u.u.u.u.u.u.u.u.u.u.u.u.u.u.u.u.u.u.u.u.u.u.u.u.u.u.u.u.u.u.u.u.u.",
"u.u.u.u.u.u.u.u.u.u.u.u.u.u.u.u.u.u.u.u.u.u.u.u.u.u.u.u.u.u.u.u.u.u.u.u.u.u.u.u.u.u.u.u.u.u.u.u.u.u.u.u.u.u.u.u.u.u.u.u.u.u.u.u.",
"u.u.u.u.u.u.u.u.u.u.u.u.u.u.u.u.u.u.u.u.u.u.u.u.u.u.u.u.u.u.u.u.u.u.u.u.u.u.u.u.u.u.u.u.u.u.u.u.u.u.u.u.u.u.u.u.u.u.u.u.u.u.u.u."
};
